<svg width="306.575px" height="140.00003662109373px" xmlns="http://www.w3.org/2000/svg" viewBox="96.7125 4.999981689453136 306.575 140.00003662109373" style="background: rgba(0, 0, 0, 0);" preserveAspectRatio="xMidYMid"><defs><filter id="editing-jagged" x="-100%" y="-100%" width="300%" height="300%"><feTurbulence result="turb" baseFrequency="0.1" numOctaves="1" seed="1"></feTurbulence><feDisplacementMap in="SourceGraphic" in2="turb" scale="10"></feDisplacementMap></filter></defs><g filter="url(#editing-jagged)"><g transform="translate(146.4638076722622, 101.60000419616699)"><path d="M30.93-35.11L30.93-35.11L30.93-35.11Q32.07-37.39 32.07-39.52L32.07-39.52L32.07-39.52Q32.07-41.65 31.84-42.83L31.84-42.83L31.84-42.83Q31.62-44.00 31.08-44.92L31.08-44.92L31.08-44.92Q29.94-46.89 27.66-46.89L27.66-46.89L27.66-46.89Q24.85-46.89 22.57-44.84L22.57-44.84L22.57-44.84Q20.14-42.71 20.14-39.37L20.14-39.37L20.14-39.37Q20.14-37.24 21.62-35.61L21.62-35.61L21.62-35.61Q23.10-33.97 25.38-32.45L25.38-32.45L25.38-32.45Q27.66-30.93 30.25-29.41L30.25-29.41L30.25-29.41Q32.83-27.89 35.11-26.07L35.11-26.07L35.11-26.07Q40.36-21.89 40.36-16.26L40.36-16.26L40.36-16.26Q40.36-12.46 38.34-9.23L38.34-9.23L38.34-9.23Q36.33-6.00 32.98-3.65L32.98-3.65L32.98-3.65Q25.69 1.52 16.04 1.52L16.04 1.52L16.04 1.52Q8.21 1.52 4.18-1.03L4.18-1.03L4.18-1.03Q0.15-3.57 0.15-7.45L0.15-7.45L0.15-7.45Q0.15-14.36 5.55-16.11L5.55-16.11L5.55-16.11Q7.07-16.64 9.39-16.64L9.39-16.64L9.39-16.64Q11.70-16.64 14.36-15.66L14.36-15.66L14.36-15.66Q13.15-12.54 13.15-9.73L13.15-9.73L13.15-9.73Q13.15-3.65 17.48-3.65L17.48-3.65L17.48-3.65Q20.29-3.65 22.61-5.70L22.61-5.70L22.61-5.70Q24.93-7.75 24.93-10.07L24.93-10.07L24.93-10.07Q24.93-12.39 23.45-14.06L23.45-14.06L23.45-14.06Q21.96-15.73 19.76-17.06L19.76-17.06L19.76-17.06Q17.56-18.39 15.01-19.68L15.01-19.68L15.01-19.68Q12.46-20.98 10.26-22.80L10.26-22.80L10.26-22.80Q5.09-26.98 5.09-33.67L5.09-33.67L5.09-33.67Q5.09-38 7.22-41.38L7.22-41.38L7.22-41.38Q9.35-44.76 12.77-47.04L12.77-47.04L12.77-47.04Q19.61-51.68 28.01-51.68L28.01-51.68L28.01-51.68Q36.40-51.68 40.47-49.17L40.47-49.17L40.47-49.17Q44.54-46.66 44.54-42.41L44.54-42.41L44.54-42.41Q44.54-38.68 41.65-36.33L41.65-36.33L41.65-36.33Q39.14-34.35 36.10-34.35L36.10-34.35L36.10-34.35Q33.06-34.35 30.93-35.11ZM79.12 1.52L79.12 1.52L79.12 1.52Q69.39 1.52 68.48-12.31L68.48-12.31L55.40-12.31L55.40-12.31Q53.88-8.82 52.82-5.78L52.82-5.78L50.84 0L40.20 0L64.14-50.16L80.48-50.16L83.68-13.22L83.68-13.22Q84.44-5.24 87.48-2.89L87.48-2.89L87.48-2.89Q85.27 1.52 79.12 1.52ZM61.94-27.51L57.76-17.86L68.25-17.86L67.34-37.39L67.34-39.44L61.94-27.51ZM120.23-5.70L120.23-5.70L120.23-5.70Q120.23-11.02 122.36-21.66L122.36-21.66L111.11-21.66L106.93 0L91.05 0L100.70-50.16L116.74-50.16L112.33-27.74L123.58-27.74L127.76-50.16L143.79-50.16L143.79-50.16Q142.73-44.54 141.36-38.23L141.36-38.23L138.78-25.84L138.78-25.84Q135.89-11.40 135.89-5.09L135.89-5.09L135.89-5.09Q135.89-2.51 136.72-1.06L136.72-1.06L136.72-1.06Q132.92 1.52 128.48 1.52L128.48 1.52L128.48 1.52Q124.03 1.52 122.13-0.61L122.13-0.61L122.13-0.61Q120.23-2.74 120.23-5.70ZM161.35 0L144.78 0L154.43-50.16L171.15-50.16L161.35 0ZM204.59-11.70L204.59-11.70L204.59-11.70Q206.04-9.88 206.04-6.35L206.04-6.35L206.04-6.35Q206.04-2.81 203.34-0.65L203.34-0.65L203.34-0.65Q200.64 1.52 195.93 1.52L195.93 1.52L195.93 1.52Q193.19 1.52 188.94 0.91L188.94 0.91L188.94 0.91Q180.58-0.38 178.18-0.38L178.18-0.38L178.18-0.38Q175.79-0.38 174.80-0.27L174.80-0.27L174.80-0.27Q173.81-0.15 172.22 0L172.22 0L181.41-50.16L198.06-50.16L190.46-8.36L190.46-8.36Q191.44-8.21 192.36-8.21L192.36-8.21L194.26-8.21L194.26-8.21Q200.64-8.21 204.59-11.70Z" fill="#444"></path></g></g><style>text {
  font-size: 64px;
  font-family: Arial Black;
  dominant-baseline: central;
  text-anchor: middle;
}</style></svg>